<svg width="73" height="74" viewBox="0 0 73 74" fill="none" xmlns="http://www.w3.org/2000/svg">
<rect y="0.5" width="73" height="73" rx="36.5" fill="white"/>
<path d="M25.3925 19.126C25.5756 19.2209 25.7291 19.3642 25.8362 19.5404C25.9434 19.7166 26 19.9188 26 20.125C26 21.88 26.6045 22.897 27.3005 23.9035C27.3665 23.9995 27.4355 24.0975 27.5075 24.1975C28.172 25.1395 29 26.3095 29 28C29 28.6895 28.8642 29.3722 28.6004 30.0091C28.3365 30.6461 27.9498 31.2248 27.4623 31.7123C26.9748 32.1999 26.396 32.5866 25.7591 32.8504C25.1221 33.1142 24.4394 33.25 23.75 33.25C23.0606 33.25 22.3779 33.1142 21.7409 32.8504C21.104 32.5866 20.5252 32.1999 20.0377 31.7123C19.5502 31.2248 19.1635 30.6461 18.8996 30.0091C18.6358 29.3722 18.5 28.6895 18.5 28C18.5 26.7655 18.626 25.42 19.4735 23.92C20.3015 22.4545 21.7625 20.941 24.2285 19.2055C24.3967 19.0871 24.5942 19.0171 24.7994 19.0031C25.0046 18.9891 25.2098 19.0316 25.3925 19.126ZM29.333 24.211C30.6377 23.3597 32.1411 22.8616 33.6961 22.7655C35.2511 22.6694 36.8043 22.9786 38.204 23.6629C39.6036 24.3471 40.8016 25.383 41.6809 26.6691C42.5601 27.9552 43.0905 29.4475 43.22 31H39.1265C37.6347 31 36.2039 31.5927 35.149 32.6476C34.0941 33.7025 33.5015 35.1332 33.5015 36.625V40.72C32.4569 40.6328 31.4355 40.3638 30.4835 39.925C30.4595 40.6585 30.4085 41.4595 30.3335 42.2995C31.3514 42.6762 32.4185 42.9035 33.5015 42.9745V46.375C33.5015 47.8669 34.0941 49.2976 35.149 50.3525C36.2039 51.4074 37.6347 52 39.1265 52H48.8765C50.3683 52 51.7991 51.4074 52.854 50.3525C53.9089 49.2976 54.5015 47.8669 54.5015 46.375V36.625C54.5015 35.1332 53.9089 33.7025 52.854 32.6476C51.7991 31.5927 50.3683 31 48.8765 31H45.4775C45.3467 29.0385 44.7042 27.1454 43.614 25.5095C42.5237 23.8736 41.0239 22.5519 39.2638 21.6762C37.5037 20.8005 35.5448 20.4013 33.5824 20.5184C31.62 20.6355 29.7225 21.2647 28.079 22.3435C28.214 22.5745 28.367 22.8055 28.5365 23.05C28.5935 23.135 28.6585 23.227 28.7315 23.326C28.9085 23.575 29.12 23.869 29.333 24.211ZM48.878 33.25C49.7731 33.25 50.6315 33.6056 51.2645 34.2386C51.8974 34.8715 52.253 35.7299 52.253 36.625V46.375C52.253 47.2701 51.8974 48.1286 51.2645 48.7615C50.6315 49.3945 49.7731 49.75 48.878 49.75H39.128C38.2329 49.75 37.3745 49.3945 36.7415 48.7615C36.1086 48.1286 35.753 47.2701 35.753 46.375V42.901C38.1964 42.5712 40.4639 41.4483 42.2072 39.7048C43.9505 37.9612 45.0731 35.6935 45.4025 33.25H48.878ZM35.753 40.6255V36.625C35.753 35.7299 36.1086 34.8715 36.7415 34.2386C37.3745 33.6056 38.2329 33.25 39.128 33.25H43.127C42.8147 35.0926 41.9369 36.7925 40.6154 38.114C39.2939 39.4355 37.5956 40.3132 35.753 40.6255ZM18.5 38.9305C18.5 37.426 18.62 35.5585 19.274 34.0195C20.5235 34.9495 22.073 35.5 23.75 35.5C25.3641 35.5024 26.9355 34.9819 28.229 34.0165C28.8815 35.557 29 37.4275 29 38.9305C29 41.425 28.604 45.2455 27.878 48.4555C27.518 50.0575 27.059 51.574 26.4935 52.7155C26.213 53.2855 25.8755 53.821 25.463 54.2305C25.0475 54.6415 24.473 55 23.753 55C23.033 55 22.46 54.6415 22.0445 54.229C21.632 53.821 21.2945 53.2855 21.0125 52.717C20.447 51.574 19.988 50.0575 19.625 48.457C18.8975 45.2455 18.5 41.425 18.5 38.932" fill="#0C47A0"/>
</svg>
