<svg width="73" height="74" viewBox="0 0 73 74" fill="none" xmlns="http://www.w3.org/2000/svg">
<rect y="0.5" width="73" height="73" rx="36.5" fill="white"/>
<path fill-rule="evenodd" clip-rule="evenodd" d="M36.5 18.625C32.6709 18.625 28.9987 20.1461 26.2911 22.8536C23.5836 25.5612 22.0625 29.2334 22.0625 33.0625V35.6875C22.0625 37.0735 22.6269 38.4044 23.2254 39.4307C23.8318 40.4781 24.5615 41.3549 25.0707 41.8668L28.7904 45.5838L30.305 50.125H42.695L44.2096 45.5838L47.9293 41.8668C48.4385 41.3549 49.1683 40.4755 49.7746 39.4307C50.3731 38.4044 50.9375 37.0735 50.9375 35.6875V33.0625C50.9375 29.2334 49.4164 25.5612 46.7089 22.8536C44.0013 20.1461 40.3291 18.625 36.5 18.625ZM40.0543 30.0543L38.1957 28.1957L33.3316 33.0625L35.9566 35.6875L32.9457 38.6957L34.8043 40.5543L39.6684 35.6875L37.0434 33.0625L40.0543 30.0543Z" fill="#0C47A0"/>
<path d="M41.75 55.375V52.75H31.25V55.375H41.75Z" fill="#0C47A0"/>
</svg>
