<svg width="73" height="74" viewBox="0 0 73 74" fill="none" xmlns="http://www.w3.org/2000/svg">
<rect y="0.5" width="73" height="73" rx="36.5" fill="white"/>
<path d="M33 55.7775C32.3223 55.4988 31.722 55.0605 31.25 54.5H20.75C20.2859 54.5 19.8408 54.3156 19.5126 53.9874C19.1844 53.6592 19 53.2141 19 52.75V25.1875C19 25.0715 19.0461 24.9602 19.1281 24.8781C19.2102 24.7961 19.3215 24.75 19.4375 24.75H53.5625C53.6785 24.75 53.7898 24.7961 53.8719 24.8781C53.9539 24.9602 54 25.0715 54 25.1875V34.235L57.5 35.7225V21.25C57.5 19.8576 56.9469 18.5223 55.9623 17.5377C54.9777 16.5531 53.6424 16 52.25 16H20.75C19.3576 16 18.0223 16.5531 17.0377 17.5377C16.0531 18.5223 15.5 19.8576 15.5 21.25V52.75C15.5 54.1424 16.0531 55.4777 17.0377 56.4623C18.0223 57.4469 19.3576 58 20.75 58H38.25L33 55.7775ZM33.875 18.625C34.3391 18.625 34.7842 18.8094 35.1124 19.1376C35.4406 19.4658 35.625 19.9109 35.625 20.375C35.625 20.8391 35.4406 21.2842 35.1124 21.6124C34.7842 21.9406 34.3391 22.125 33.875 22.125C33.4109 22.125 32.9658 21.9406 32.6376 21.6124C32.3094 21.2842 32.125 20.8391 32.125 20.375C32.125 19.9109 32.3094 19.4658 32.6376 19.1376C32.9658 18.8094 33.4109 18.625 33.875 18.625ZM27.75 18.625C28.2141 18.625 28.6592 18.8094 28.9874 19.1376C29.3156 19.4658 29.5 19.9109 29.5 20.375C29.5 20.8391 29.3156 21.2842 28.9874 21.6124C28.6592 21.9406 28.2141 22.125 27.75 22.125C27.2859 22.125 26.8408 21.9406 26.5126 21.6124C26.1844 21.2842 26 20.8391 26 20.375C26 19.9109 26.1844 19.4658 26.5126 19.1376C26.8408 18.8094 27.2859 18.625 27.75 18.625ZM21.625 18.625C22.0891 18.625 22.5342 18.8094 22.8624 19.1376C23.1906 19.4658 23.375 19.9109 23.375 20.375C23.375 20.8391 23.1906 21.2842 22.8624 21.6124C22.5342 21.9406 22.0891 22.125 21.625 22.125C21.1609 22.125 20.7158 21.9406 20.3876 21.6124C20.0594 21.2842 19.875 20.8391 19.875 20.375C19.875 19.9109 20.0594 19.4658 20.3876 19.1376C20.7158 18.8094 21.1609 18.625 21.625 18.625Z" fill="#0C47A0"/>
<path d="M57.5 39.7475C57.4997 39.404 57.3983 39.0682 57.2085 38.7819C57.0187 38.4956 56.7488 38.2715 56.4325 38.1375L45.9325 33.64C45.7166 33.5486 45.4845 33.5015 45.25 33.5015C45.0155 33.5015 44.7834 33.5486 44.5675 33.64L34.0675 38.1375C33.7512 38.2715 33.4813 38.4956 33.2915 38.7819C33.1017 39.0682 33.0003 39.404 33 39.7475V51.7525C33.0003 52.096 33.1017 52.4319 33.2915 52.7182C33.4813 53.0045 33.7512 53.2286 34.0675 53.3625L44.5675 57.86C44.7834 57.9515 45.0155 57.9986 45.25 57.9986C45.4845 57.9986 45.7166 57.9515 45.9325 57.86L56.4325 53.3625C56.7488 53.2286 57.0187 53.0045 57.2085 52.7182C57.3983 52.4319 57.4997 52.096 57.5 51.7525V39.7475ZM45.25 37.1575L51.305 39.7475L45.25 42.355L39.195 39.7475L45.25 37.1575ZM36.5 42.4075L43.5 45.4V53.59L36.5 50.5975V42.4075ZM47 53.59V45.4L54 42.4075V50.5975L47 53.59Z" fill="#0C47A0"/>
</svg>
