<svg width="73" height="74" viewBox="0 0 73 74" fill="none" xmlns="http://www.w3.org/2000/svg">
<rect y="0.5" width="73" height="73" rx="36.5" fill="white"/>
<path d="M32.522 30.532L36.6135 34.6235C37.2496 35.2556 38.1099 35.6104 39.0066 35.6104C39.9034 35.6104 40.7637 35.2556 41.3998 34.6235L52.9253 23.0805C53.0062 23.0055 53.1124 22.9638 53.2228 22.9638C53.3331 22.9638 53.4394 23.0055 53.5203 23.0805L55.37 24.9302C55.5258 25.0877 55.741 25.1752 55.965 25.1682C56.0712 25.1927 56.1779 25.1927 56.2853 25.1682C56.4485 25.1016 56.587 24.9857 56.6814 24.8368C56.7758 24.6878 56.8215 24.5131 56.812 24.337V17.547C56.812 17.3219 56.7226 17.106 56.5634 16.9468C56.4043 16.7877 56.1884 16.6982 55.9633 16.6982H49.1733C48.9945 16.6849 48.8161 16.7285 48.6636 16.8228C48.5111 16.9171 48.3924 17.0573 48.3245 17.2232C48.2588 17.377 48.2415 17.5471 48.275 17.711C48.3085 17.8748 48.391 18.0245 48.5118 18.1402L50.5155 20.0757C50.5562 20.1139 50.5886 20.16 50.6108 20.2111C50.633 20.2623 50.6444 20.3175 50.6444 20.3732C50.6444 20.429 50.633 20.4842 50.6108 20.5354C50.5886 20.5865 50.5562 20.6326 50.5155 20.6707L45.423 25.7632C40.852 14.9255 26.2658 13.1002 19.1678 22.475C17.0783 25.2328 15.9868 28.6183 16.072 32.0772C16.0755 32.6442 16.1094 33.2101 16.1735 33.7747C16.2238 34.1886 16.4246 34.5695 16.7377 34.8448C17.0507 35.1201 17.4541 35.2705 17.871 35.2675H18.074C18.2959 35.2423 18.5107 35.1735 18.7059 35.0652C18.9012 34.9569 19.0732 34.8111 19.212 34.6361C19.3509 34.4612 19.4538 34.2606 19.515 34.0458C19.5762 33.8311 19.5943 33.6063 19.5685 33.3845C19.5421 32.9205 19.5421 32.4555 19.5685 31.9915C19.8713 22.7725 30.0423 17.3352 37.8753 22.2055C40.1821 23.6402 41.9333 25.8158 42.8418 28.376L39.312 31.96C39.2282 32.0362 39.119 32.0785 39.0058 32.0785C38.8925 32.0785 38.7833 32.0362 38.6995 31.96L34.6098 27.8335C33.9737 27.2014 33.1134 26.8466 32.2166 26.8466C31.3199 26.8466 30.4596 27.2014 29.8235 27.8335L16.583 41.0565C16.2658 41.376 16.0885 41.8085 16.0901 42.2588C16.0918 42.7091 16.2722 43.1403 16.5918 43.4575C16.9113 43.7747 17.3438 43.952 17.7941 43.9504C18.2444 43.9487 18.6755 43.7683 18.9928 43.4487L19.978 42.4652C21.4478 44.0494 23.2247 45.3179 25.2004 46.1934C27.1762 47.0688 29.3094 47.5331 31.4703 47.5577C34.8451 47.5653 38.1274 46.4552 40.8048 44.4007C40.8834 44.3353 40.9825 44.2994 41.0848 44.2994C41.1871 44.2994 41.2862 44.3353 41.3648 44.4007L43.7413 46.7772C43.7988 46.8332 43.8391 46.9045 43.8574 46.9826C43.8757 47.0608 43.8712 47.1426 43.8445 47.2182C43.6829 47.6706 43.653 48.1596 43.7583 48.6283C43.8637 49.0971 44.0999 49.5262 44.4395 49.866L51.0248 56.4687C52.7818 58.4025 55.9738 57.7077 56.77 55.2175C56.9685 54.5958 56.9836 53.9301 56.8135 53.3001C56.6435 52.67 56.2954 52.1023 55.811 51.665L49.2415 45.029C48.7619 44.5553 48.1166 44.2872 47.4425 44.2817C47.1509 44.2817 46.8679 44.3325 46.5938 44.434C46.5182 44.4609 46.4366 44.4657 46.3584 44.4477C46.2803 44.4297 46.2089 44.3897 46.1528 44.3325L43.7763 41.956C43.7085 41.8785 43.6711 41.779 43.6711 41.676C43.6711 41.573 43.7085 41.4735 43.7763 41.396C44.8129 40.0265 45.6159 38.495 46.1528 36.8635C46.232 36.6492 46.2672 36.4211 46.2562 36.1928C46.2452 35.9646 46.1883 35.7409 46.0888 35.5352C45.9892 35.3295 45.8492 35.1461 45.6771 34.9958C45.5049 34.8455 45.3042 34.7315 45.087 34.6607C44.8697 34.5898 44.6404 34.5636 44.4128 34.5835C44.1852 34.6034 43.9639 34.6691 43.7622 34.7766C43.5606 34.884 43.3827 35.0311 43.2393 35.209C43.0959 35.3869 42.9898 35.5919 42.9275 35.8117C42.1395 38.2155 40.6123 40.3089 38.5639 41.7932C36.5155 43.2775 34.0506 44.0768 31.521 44.077C29.8149 44.065 28.1295 43.7017 26.5699 43.0098C25.0103 42.318 23.6099 41.3123 22.456 40.0555L31.962 30.532C32.0395 30.4642 32.139 30.4268 32.242 30.4268C32.345 30.4268 32.4445 30.4642 32.522 30.532Z" fill="#0C47A0"/>
</svg>
