<svg width="24" height="24" viewBox="0 0 24 24" fill="none" xmlns="http://www.w3.org/2000/svg">
<path d="M12 5.14258C8.21285 5.14258 5.14258 8.21285 5.14258 12C5.14258 12.5918 5.21744 13.1661 5.3584 13.7139H0.123047C0.04298 13.154 0 12.582 0 12C9.17402e-05 5.37262 5.37262 9.17429e-05 12 0V5.14258Z" fill="#0C47A0"/>
<path d="M12.3101 0.00366211C18.7942 0.168085 24.0004 5.47597 24.0005 11.9998C24.0005 18.6271 18.6278 23.9995 12.0005 23.9998C5.95533 23.9997 0.95467 19.5296 0.122559 13.7146H5.35889C6.12034 16.6719 8.80548 18.8572 12.0005 18.8572C15.7874 18.8569 18.8579 15.7868 18.8579 11.9998C18.8579 8.33099 15.9761 5.33484 12.353 5.15112L12.0005 5.14233V-0.000244141L12.3101 0.00366211Z" fill="white"/>
</svg>
