<svg width="53" height="54" viewBox="0 0 53 54" fill="none" xmlns="http://www.w3.org/2000/svg">
<rect x="0.5" y="1.09375" width="52" height="52" rx="26" fill="#F4F4F4"/>
<rect x="0.5" y="1.09375" width="52" height="52" rx="26" stroke="white"/>
<path d="M11.0625 24.6563H14.3125C14.5443 24.6563 14.7377 24.7337 14.8926 24.8886C15.0476 25.0436 15.125 25.2369 15.125 25.4688C15.125 25.7006 15.0476 25.894 14.8926 26.0489C14.7377 26.2038 14.5443 26.2813 14.3125 26.2813H11.0625C10.8318 26.2813 10.6384 26.2038 10.4824 26.0489C10.3264 25.894 10.2489 25.7006 10.25 25.4688C10.2511 25.2369 10.3286 25.0436 10.4824 24.8886C10.6362 24.7337 10.8296 24.6563 11.0625 24.6563ZM14.6375 33.7433L16.8995 31.4813C17.0588 31.3231 17.2456 31.2402 17.4601 31.2326C17.6746 31.2251 17.8713 31.3079 18.05 31.4813C18.2298 31.6611 18.3208 31.8545 18.323 32.0614C18.3252 32.2683 18.2374 32.4617 18.0598 32.6415L15.7961 34.9035C15.638 35.0617 15.45 35.1446 15.2323 35.1521C15.0156 35.1586 14.8173 35.0725 14.6375 34.8938C14.4642 34.7139 14.3764 34.5222 14.3743 34.3185C14.3721 34.1148 14.4598 33.9231 14.6375 33.7433ZM16.8995 19.4563L14.6375 17.1943C14.4793 17.035 14.3965 16.8481 14.3889 16.6336C14.3824 16.4202 14.4653 16.2236 14.6375 16.0438C14.8173 15.865 15.0107 15.774 15.2176 15.7708C15.4246 15.7675 15.6179 15.8553 15.7978 16.034L18.0598 18.2976C18.2179 18.4558 18.3008 18.6438 18.3084 18.8615C18.316 19.0793 18.2298 19.2775 18.05 19.4563C17.8713 19.6296 17.6795 19.7179 17.4748 19.7211C17.2711 19.7233 17.0793 19.635 16.8995 19.4563ZM33.7686 36.8633L27.3434 30.438L26.4691 33.1566C26.415 33.304 26.3288 33.4199 26.2108 33.5044C26.0938 33.5889 25.9638 33.6311 25.8208 33.6311C25.6778 33.6311 25.5537 33.5878 25.4486 33.5011C25.3403 33.4123 25.2591 33.2942 25.2049 33.1469L22.7755 25.1519C22.7213 24.9569 22.7176 24.7825 22.7641 24.6286C22.8107 24.4748 22.9017 24.3296 23.0371 24.1931C23.1726 24.0566 23.3177 23.9656 23.4726 23.9201C23.6265 23.8736 23.8014 23.8773 23.9975 23.9315L32.1973 26.3934C32.3446 26.4476 32.4605 26.5288 32.545 26.6371C32.6295 26.7433 32.6718 26.8673 32.6718 27.0093C32.6718 27.1512 32.6366 27.2758 32.5661 27.383C32.4957 27.4903 32.3863 27.571 32.2379 27.6251L29.425 28.644L35.5821 34.7995C35.8443 35.0617 35.9754 35.3683 35.9754 35.7193C35.9754 36.0703 35.8438 36.3763 35.5805 36.6374L35.3563 36.8616C35.1353 37.0826 34.8709 37.1931 34.5633 37.1931C34.2556 37.1931 33.9907 37.0843 33.7686 36.8633ZM23.4385 16.5313V13.2813C23.4385 13.0505 23.516 12.8571 23.6709 12.7011C23.8258 12.5451 24.0192 12.4677 24.251 12.4688C24.4828 12.4698 24.6757 12.5473 24.8295 12.7011C24.9855 12.8571 25.0635 13.0505 25.0635 13.2813V16.5313C25.0635 16.7631 24.9855 16.9565 24.8295 17.1114C24.6746 17.2663 24.4818 17.3438 24.251 17.3438C24.0192 17.3438 23.8258 17.2663 23.6709 17.1114C23.516 16.9565 23.4385 16.7631 23.4385 16.5313ZM30.4406 18.2976L32.7124 16.0259C32.8641 15.8731 33.0493 15.7897 33.2681 15.7756C33.487 15.7616 33.6852 15.8444 33.8629 16.0243C34.0362 16.1976 34.124 16.3877 34.1261 16.5946C34.1294 16.8026 34.0449 16.996 33.8726 17.1748L31.6009 19.4563C31.4481 19.6144 31.2629 19.6973 31.0451 19.7049C30.8285 19.7125 30.6302 19.6296 30.4504 19.4563C30.2716 19.2775 30.1806 19.0841 30.1774 18.8761C30.1741 18.6681 30.2619 18.4753 30.4406 18.2976Z" fill="#0C47A0"/>
</svg>
