<svg width="32" height="31" viewBox="0 0 32 31" fill="none" xmlns="http://www.w3.org/2000/svg">
<rect x="1" y="0.728516" width="30" height="29" rx="14.5" stroke="#393939"/>
<path d="M10.7449 22.059L13.1159 21.0902C12.9069 20.4672 12.7284 19.8331 12.5801 19.1879C12.4326 18.5426 12.3249 17.8884 12.2572 17.2252L11.0018 18.0647C10.9162 18.1267 10.8516 18.1976 10.8082 18.2775C10.7647 18.3573 10.7433 18.4461 10.744 18.5439L10.7449 22.059ZM14.0799 20.979H17.9133C18.2008 20.2053 18.4324 19.3591 18.6081 18.4404C18.7838 17.5216 18.8716 16.5649 18.8716 15.5702C18.8716 14.1237 18.6512 12.792 18.2104 11.5749C17.7695 10.3578 17.0316 9.18223 15.9966 8.0482C14.9616 9.18351 14.2237 10.3594 13.7829 11.5758C13.342 12.7923 13.1216 14.124 13.1216 15.5711C13.1216 16.5665 13.2095 17.5232 13.3851 18.4413C13.5608 19.3594 13.7924 20.2053 14.0799 20.979ZM15.9966 15.7082C15.5922 15.7082 15.2517 15.5695 14.975 15.2922C14.6977 15.0156 14.5591 14.6751 14.5591 14.2707C14.5591 13.8662 14.6977 13.5257 14.975 13.2491C15.2523 12.9724 15.5928 12.8338 15.9966 12.8332C16.4004 12.8325 16.7409 12.9712 17.0182 13.2491C17.2955 13.5257 17.4341 13.8662 17.4341 14.2707C17.4341 14.6751 17.2955 15.0156 17.0182 15.2922C16.7409 15.5689 16.4004 15.7075 15.9966 15.7082ZM21.2483 22.059V18.563C21.2483 18.4646 21.2272 18.3726 21.185 18.287C21.1416 18.2008 21.0767 18.1267 20.9905 18.0647L19.736 17.2252C19.6683 17.8884 19.545 18.6071 19.3661 19.3815C19.1872 20.1558 19.0243 20.7314 18.8774 21.1084L21.2483 22.059ZM15.9966 6.7832C17.3197 7.95748 18.2893 9.28062 18.9051 10.7526C19.5217 12.2246 19.8299 13.8643 19.8299 15.6717C19.8299 15.7452 19.8331 15.8219 19.8395 15.9017C19.8459 15.9816 19.8427 16.0647 19.8299 16.1509L21.4926 17.2712C21.715 17.4098 21.8897 17.5951 22.0169 17.827C22.144 18.059 22.2076 18.3043 22.2076 18.563V23.4668L18.3982 21.9373H13.5768L9.78564 23.4668V18.5448C9.78564 18.2867 9.84634 18.0414 9.96773 17.8088C10.0885 17.5769 10.26 17.3916 10.4824 17.253L12.1633 16.1317V15.6717C12.1633 13.8637 12.4715 12.224 13.0881 10.7526C13.704 9.28062 14.6735 7.95748 15.9966 6.7832Z" fill="#393939"/>
</svg>
