<svg width="31" height="31" viewBox="0 0 31 31" fill="none" xmlns="http://www.w3.org/2000/svg">
<rect x="0.5" y="0.728516" width="30" height="29" rx="14.5" stroke="#393939"/>
<path d="M24.125 21.877H23.2266V7.32227C23.2266 7.1793 23.1698 7.04218 23.0687 6.94109C22.9676 6.84 22.8305 6.7832 22.6875 6.7832H17.6562C17.5133 6.7832 17.3762 6.84 17.2751 6.94109C17.174 7.04218 17.1172 7.1793 17.1172 7.32227V11.0957H12.625C12.482 11.0957 12.3449 11.1525 12.2438 11.2536C12.1427 11.3547 12.0859 11.4918 12.0859 11.6348V15.4082H8.3125C8.16953 15.4082 8.03242 15.465 7.93133 15.5661C7.83023 15.6672 7.77344 15.8043 7.77344 15.9473V21.877H6.875C6.73203 21.877 6.59492 21.9337 6.49383 22.0348C6.39273 22.1359 6.33594 22.273 6.33594 22.416C6.33594 22.559 6.39273 22.6961 6.49383 22.7972C6.59492 22.8983 6.73203 22.9551 6.875 22.9551H24.125C24.268 22.9551 24.4051 22.8983 24.5062 22.7972C24.6073 22.6961 24.6641 22.559 24.6641 22.416C24.6641 22.273 24.6073 22.1359 24.5062 22.0348C24.4051 21.9337 24.268 21.877 24.125 21.877ZM18.1953 7.86133H22.1484V21.877H18.1953V7.86133ZM13.1641 12.1738H17.1172V21.877H13.1641V12.1738ZM8.85156 16.4863H12.0859V21.877H8.85156V16.4863Z" fill="black"/>
</svg>
