<svg width="31" height="31" viewBox="0 0 31 31" fill="none" xmlns="http://www.w3.org/2000/svg">
<rect x="0.5" y="0.728516" width="30" height="29" rx="14.5" stroke="#393939"/>
<path d="M21.5469 12.9785C21.5476 11.9566 21.2894 10.9513 20.7963 10.0562C20.3032 9.16121 19.5913 8.40574 18.7272 7.86038C17.863 7.31502 16.8747 6.99755 15.8546 6.93762C14.8345 6.8777 13.8159 7.07726 12.8938 7.51769C11.9717 7.95811 11.1763 8.62503 10.5818 9.45616C9.98729 10.2873 9.61312 11.2555 9.49421 12.2704C9.3753 13.2854 9.51553 14.3139 9.90181 15.2599C10.2881 16.2059 10.9078 17.0387 11.7031 17.6803V23.1035C11.7032 23.1754 11.7217 23.2461 11.7567 23.3088C11.7918 23.3716 11.8423 23.4244 11.9035 23.4621C11.9699 23.5036 12.0467 23.5255 12.125 23.5254C12.1904 23.5254 12.2549 23.5103 12.3134 23.4811L15.5 21.8878L18.6873 23.4811C18.7516 23.513 18.823 23.528 18.8947 23.5247C18.9664 23.5213 19.0361 23.4997 19.0971 23.4619C19.1582 23.4241 19.2086 23.3714 19.2435 23.3086C19.2785 23.2459 19.2968 23.1753 19.2969 23.1035V17.6803C19.9993 17.1144 20.566 16.3984 20.9554 15.5847C21.3448 14.7711 21.5469 13.8805 21.5469 12.9785ZM10.2969 12.9785C10.2969 11.9494 10.602 10.9435 11.1738 10.0878C11.7455 9.23216 12.5581 8.56526 13.5089 8.17145C14.4596 7.77763 15.5058 7.67459 16.5151 7.87536C17.5244 8.07612 18.4515 8.57167 19.1792 9.29934C19.9068 10.027 20.4024 10.9541 20.6031 11.9634C20.8039 12.9727 20.7009 14.0189 20.3071 14.9697C19.9132 15.9204 19.2464 16.733 18.3907 17.3047C17.5351 17.8765 16.5291 18.1816 15.5 18.1816C14.1206 18.18 12.7981 17.6312 11.8227 16.6558C10.8473 15.6804 10.2985 14.3579 10.2969 12.9785ZM18.4531 22.4208L15.6877 21.0384C15.6292 21.0092 15.5647 20.994 15.4993 20.994C15.4339 20.994 15.3694 21.0092 15.3109 21.0384L12.5469 22.4208V18.2519C13.4487 18.7586 14.4656 19.0247 15.5 19.0247C16.5344 19.0247 17.5513 18.7586 18.4531 18.2519V22.4208ZM15.5 16.7754C16.251 16.7754 16.985 16.5527 17.6094 16.1355C18.2338 15.7183 18.7205 15.1253 19.0079 14.4315C19.2952 13.7377 19.3704 12.9743 19.2239 12.2378C19.0774 11.5013 18.7158 10.8247 18.1848 10.2937C17.6538 9.76271 16.9773 9.40109 16.2407 9.25459C15.5042 9.10808 14.7408 9.18327 14.047 9.47065C13.3532 9.75803 12.7602 10.2447 12.343 10.8691C11.9258 11.4935 11.7031 12.2276 11.7031 12.9785C11.7042 13.9852 12.1046 14.9503 12.8164 15.6621C13.5282 16.3739 14.4933 16.7743 15.5 16.7754ZM15.5 10.0254C16.0841 10.0254 16.655 10.1986 17.1407 10.5231C17.6263 10.8476 18.0048 11.3088 18.2283 11.8484C18.4518 12.388 18.5103 12.9818 18.3964 13.5546C18.2824 14.1275 18.0012 14.6537 17.5882 15.0667C17.1752 15.4797 16.649 15.7609 16.0761 15.8749C15.5033 15.9888 14.9095 15.9304 14.3699 15.7068C13.8303 15.4833 13.3691 15.1048 13.0446 14.6192C12.7201 14.1335 12.5469 13.5626 12.5469 12.9785C12.5469 12.1953 12.858 11.4441 13.4118 10.8903C13.9656 10.3365 14.7168 10.0254 15.5 10.0254Z" fill="#393939"/>
</svg>
